<mxfile host="app.diagrams.net" modified="2020-10-07T00:22:54.146Z" agent="5.0 (Macintosh; Intel Mac OS X 10_15_6) AppleWebKit/537.36 (KHTML, like Gecko) Chrome/85.0.4183.121 Safari/537.36" etag="yYmvXW324DbXWcuy4K5s" version="13.7.7" type="github">
  <diagram id="R2lEEEUBdFMjLlhIrx00" name="Page-1">
    <mxGraphModel dx="2161" dy="1874" grid="1" gridSize="10" guides="1" tooltips="1" connect="1" arrows="1" fold="1" page="1" pageScale="1" pageWidth="850" pageHeight="1100" math="0" shadow="0" extFonts="Permanent Marker^https://fonts.googleapis.com/css?family=Permanent+Marker">
      <root>
        <mxCell id="0" />
        <mxCell id="1" parent="0" />
        <mxCell id="MQW95vso0sPVQXTdO-kV-1" value="Product" style="whiteSpace=wrap;html=1;align=center;" vertex="1" parent="1">
          <mxGeometry x="360" y="170" width="100" height="40" as="geometry" />
        </mxCell>
        <mxCell id="MQW95vso0sPVQXTdO-kV-2" value="Order" style="whiteSpace=wrap;html=1;align=center;" vertex="1" parent="1">
          <mxGeometry x="80" y="400" width="100" height="40" as="geometry" />
        </mxCell>
        <mxCell id="MQW95vso0sPVQXTdO-kV-3" value="Customer" style="whiteSpace=wrap;html=1;align=center;" vertex="1" parent="1">
          <mxGeometry x="-180" y="180" width="100" height="40" as="geometry" />
        </mxCell>
        <mxCell id="MQW95vso0sPVQXTdO-kV-4" value="clothing_id" style="ellipse;whiteSpace=wrap;html=1;align=center;fontStyle=4;" vertex="1" parent="1">
          <mxGeometry x="460" y="100" width="100" height="40" as="geometry" />
        </mxCell>
        <mxCell id="MQW95vso0sPVQXTdO-kV-5" value="cust_id" style="ellipse;whiteSpace=wrap;html=1;align=center;fontStyle=4;" vertex="1" parent="1">
          <mxGeometry x="-260" y="100" width="100" height="40" as="geometry" />
        </mxCell>
        <mxCell id="MQW95vso0sPVQXTdO-kV-6" value="order_id" style="ellipse;whiteSpace=wrap;html=1;align=center;fontStyle=4;" vertex="1" parent="1">
          <mxGeometry x="260" y="420" width="100" height="40" as="geometry" />
        </mxCell>
        <mxCell id="MQW95vso0sPVQXTdO-kV-9" value="OnlineStore" style="whiteSpace=wrap;html=1;align=center;" vertex="1" parent="1">
          <mxGeometry x="80" y="10" width="100" height="40" as="geometry" />
        </mxCell>
        <mxCell id="MQW95vso0sPVQXTdO-kV-10" value="clothing_id" style="ellipse;whiteSpace=wrap;html=1;align=center;" vertex="1" parent="1">
          <mxGeometry x="-80" y="420" width="100" height="40" as="geometry" />
        </mxCell>
        <mxCell id="MQW95vso0sPVQXTdO-kV-11" value="cust_id" style="ellipse;whiteSpace=wrap;html=1;align=center;" vertex="1" parent="1">
          <mxGeometry x="10" y="490" width="100" height="40" as="geometry" />
        </mxCell>
        <mxCell id="MQW95vso0sPVQXTdO-kV-12" value="phone" style="ellipse;whiteSpace=wrap;html=1;align=center;" vertex="1" parent="1">
          <mxGeometry x="-10" y="-70" width="100" height="40" as="geometry" />
        </mxCell>
        <mxCell id="MQW95vso0sPVQXTdO-kV-13" value="email" style="ellipse;whiteSpace=wrap;html=1;align=center;" vertex="1" parent="1">
          <mxGeometry x="170" y="-70" width="100" height="40" as="geometry" />
        </mxCell>
        <mxCell id="MQW95vso0sPVQXTdO-kV-14" value="name" style="ellipse;whiteSpace=wrap;html=1;align=center;" vertex="1" parent="1">
          <mxGeometry x="80" y="-130" width="100" height="40" as="geometry" />
        </mxCell>
        <mxCell id="MQW95vso0sPVQXTdO-kV-16" value="price" style="ellipse;whiteSpace=wrap;html=1;align=center;" vertex="1" parent="1">
          <mxGeometry x="560" y="180" width="100" height="40" as="geometry" />
        </mxCell>
        <mxCell id="MQW95vso0sPVQXTdO-kV-17" value="quantity" style="ellipse;whiteSpace=wrap;html=1;align=center;" vertex="1" parent="1">
          <mxGeometry x="170" y="490" width="100" height="40" as="geometry" />
        </mxCell>
        <mxCell id="MQW95vso0sPVQXTdO-kV-18" value="order_id" style="ellipse;whiteSpace=wrap;html=1;align=center;" vertex="1" parent="1">
          <mxGeometry x="-340" y="170" width="100" height="40" as="geometry" />
        </mxCell>
        <mxCell id="MQW95vso0sPVQXTdO-kV-19" value="cust_name" style="ellipse;whiteSpace=wrap;html=1;align=center;" vertex="1" parent="1">
          <mxGeometry x="-260" y="250" width="100" height="40" as="geometry" />
        </mxCell>
        <mxCell id="MQW95vso0sPVQXTdO-kV-21" value="clothing_name" style="ellipse;whiteSpace=wrap;html=1;align=center;" vertex="1" parent="1">
          <mxGeometry x="460" y="250" width="100" height="40" as="geometry" />
        </mxCell>
        <mxCell id="MQW95vso0sPVQXTdO-kV-22" value="sell" style="shape=rhombus;perimeter=rhombusPerimeter;whiteSpace=wrap;html=1;align=center;" vertex="1" parent="1">
          <mxGeometry x="250" y="100" width="70" height="30" as="geometry" />
        </mxCell>
        <mxCell id="MQW95vso0sPVQXTdO-kV-25" value="has" style="shape=rhombus;perimeter=rhombusPerimeter;whiteSpace=wrap;html=1;align=center;" vertex="1" parent="1">
          <mxGeometry x="-50" y="100" width="70" height="30" as="geometry" />
        </mxCell>
        <mxCell id="MQW95vso0sPVQXTdO-kV-27" value="make" style="shape=rhombus;perimeter=rhombusPerimeter;whiteSpace=wrap;html=1;align=center;" vertex="1" parent="1">
          <mxGeometry x="-50" y="300" width="70" height="30" as="geometry" />
        </mxCell>
        <mxCell id="MQW95vso0sPVQXTdO-kV-29" value="contains" style="shape=rhombus;perimeter=rhombusPerimeter;whiteSpace=wrap;html=1;align=center;" vertex="1" parent="1">
          <mxGeometry x="270" y="300" width="70" height="30" as="geometry" />
        </mxCell>
        <mxCell id="MQW95vso0sPVQXTdO-kV-31" value="" style="endArrow=none;html=1;rounded=0;entryX=0.25;entryY=0;entryDx=0;entryDy=0;" edge="1" parent="1" target="MQW95vso0sPVQXTdO-kV-3">
          <mxGeometry relative="1" as="geometry">
            <mxPoint x="-190" y="138.33" as="sourcePoint" />
            <mxPoint x="-30" y="138.33" as="targetPoint" />
          </mxGeometry>
        </mxCell>
        <mxCell id="MQW95vso0sPVQXTdO-kV-32" value="" style="endArrow=none;html=1;rounded=0;exitX=1;exitY=0.5;exitDx=0;exitDy=0;" edge="1" parent="1" source="MQW95vso0sPVQXTdO-kV-18">
          <mxGeometry relative="1" as="geometry">
            <mxPoint x="-240" y="190" as="sourcePoint" />
            <mxPoint x="-180" y="190" as="targetPoint" />
          </mxGeometry>
        </mxCell>
        <mxCell id="MQW95vso0sPVQXTdO-kV-33" value="" style="endArrow=none;html=1;rounded=0;entryX=0.25;entryY=1;entryDx=0;entryDy=0;" edge="1" parent="1" source="MQW95vso0sPVQXTdO-kV-19" target="MQW95vso0sPVQXTdO-kV-3">
          <mxGeometry relative="1" as="geometry">
            <mxPoint x="-170" y="158.32999999999993" as="sourcePoint" />
            <mxPoint x="-135" y="200" as="targetPoint" />
          </mxGeometry>
        </mxCell>
        <mxCell id="MQW95vso0sPVQXTdO-kV-34" value="" style="endArrow=none;html=1;rounded=0;exitX=0.74;exitY=1.025;exitDx=0;exitDy=0;exitPerimeter=0;entryX=0.13;entryY=-0.075;entryDx=0;entryDy=0;entryPerimeter=0;" edge="1" parent="1" source="MQW95vso0sPVQXTdO-kV-12" target="MQW95vso0sPVQXTdO-kV-9">
          <mxGeometry relative="1" as="geometry">
            <mxPoint x="-30" y="10" as="sourcePoint" />
            <mxPoint x="130" y="10" as="targetPoint" />
          </mxGeometry>
        </mxCell>
        <mxCell id="MQW95vso0sPVQXTdO-kV-35" value="" style="endArrow=none;html=1;rounded=0;exitX=0.5;exitY=1;exitDx=0;exitDy=0;entryX=0.5;entryY=0;entryDx=0;entryDy=0;" edge="1" parent="1" source="MQW95vso0sPVQXTdO-kV-14" target="MQW95vso0sPVQXTdO-kV-9">
          <mxGeometry relative="1" as="geometry">
            <mxPoint x="74" y="-19" as="sourcePoint" />
            <mxPoint x="103" y="17" as="targetPoint" />
          </mxGeometry>
        </mxCell>
        <mxCell id="MQW95vso0sPVQXTdO-kV-36" value="" style="endArrow=none;html=1;rounded=0;exitX=0;exitY=1;exitDx=0;exitDy=0;entryX=0.75;entryY=0;entryDx=0;entryDy=0;" edge="1" parent="1" source="MQW95vso0sPVQXTdO-kV-13" target="MQW95vso0sPVQXTdO-kV-9">
          <mxGeometry relative="1" as="geometry">
            <mxPoint x="84" y="-9" as="sourcePoint" />
            <mxPoint x="113" y="27" as="targetPoint" />
          </mxGeometry>
        </mxCell>
        <mxCell id="MQW95vso0sPVQXTdO-kV-37" value="clothing_id" style="ellipse;whiteSpace=wrap;html=1;align=center;fontStyle=4;" vertex="1" parent="1">
          <mxGeometry x="240" y="50" width="70" height="30" as="geometry" />
        </mxCell>
        <mxCell id="MQW95vso0sPVQXTdO-kV-38" value="name" style="ellipse;whiteSpace=wrap;html=1;align=center;fontStyle=4;" vertex="1" parent="1">
          <mxGeometry x="320" y="60" width="50" height="20" as="geometry" />
        </mxCell>
        <mxCell id="MQW95vso0sPVQXTdO-kV-40" value="name" style="ellipse;whiteSpace=wrap;html=1;align=center;fontStyle=4;" vertex="1" parent="1">
          <mxGeometry x="-60" y="40" width="50" height="20" as="geometry" />
        </mxCell>
        <mxCell id="MQW95vso0sPVQXTdO-kV-41" value="clothing_id" style="ellipse;whiteSpace=wrap;html=1;align=center;fontStyle=4;" vertex="1" parent="1">
          <mxGeometry x="370" y="300" width="70" height="30" as="geometry" />
        </mxCell>
        <mxCell id="MQW95vso0sPVQXTdO-kV-42" value="ordeer_id&lt;span style=&quot;color: rgba(0 , 0 , 0 , 0) ; font-family: monospace ; font-size: 0px&quot;&gt;%3CmxGraphModel%3E%3Croot%3E%3CmxCell%20id%3D%220%22%2F%3E%3CmxCell%20id%3D%221%22%20parent%3D%220%22%2F%3E%3CmxCell%20id%3D%222%22%20value%3D%22clothing_id%22%20style%3D%22ellipse%3BwhiteSpace%3Dwrap%3Bhtml%3D1%3Balign%3Dcenter%3BfontStyle%3D4%3B%22%20vertex%3D%221%22%20parent%3D%221%22%3E%3CmxGeometry%20x%3D%22360%22%20y%3D%22300%22%20width%3D%2270%22%20height%3D%2230%22%20as%3D%22geometry%22%2F%3E%3C%2FmxCell%3E%3C%2Froot%3E%3C%2FmxGraphModel%3E&lt;/span&gt;" style="ellipse;whiteSpace=wrap;html=1;align=center;fontStyle=4;" vertex="1" parent="1">
          <mxGeometry x="320" y="350" width="70" height="30" as="geometry" />
        </mxCell>
        <mxCell id="MQW95vso0sPVQXTdO-kV-43" value="ordeer_id&lt;span style=&quot;color: rgba(0 , 0 , 0 , 0) ; font-family: monospace ; font-size: 0px&quot;&gt;%3CmxGraphModel%3E%3Croot%3E%3CmxCell%20id%3D%220%22%2F%3E%3CmxCell%20id%3D%221%22%20parent%3D%220%22%2F%3E%3CmxCell%20id%3D%222%22%20value%3D%22clothing_id%22%20style%3D%22ellipse%3BwhiteSpace%3Dwrap%3Bhtml%3D1%3Balign%3Dcenter%3BfontStyle%3D4%3B%22%20vertex%3D%221%22%20parent%3D%221%22%3E%3CmxGeometry%20x%3D%22360%22%20y%3D%22300%22%20width%3D%2270%22%20height%3D%2230%22%20as%3D%22geometry%22%2F%3E%3C%2FmxCell%3E%3C%2Froot%3E%3C%2FmxGraphModel%3E&lt;/span&gt;" style="ellipse;whiteSpace=wrap;html=1;align=center;fontStyle=4;" vertex="1" parent="1">
          <mxGeometry x="-150" y="300" width="70" height="30" as="geometry" />
        </mxCell>
        <mxCell id="MQW95vso0sPVQXTdO-kV-44" value="cust_id" style="ellipse;whiteSpace=wrap;html=1;align=center;fontStyle=4;" vertex="1" parent="1">
          <mxGeometry x="-120" y="60" width="70" height="30" as="geometry" />
        </mxCell>
        <mxCell id="MQW95vso0sPVQXTdO-kV-45" value="cust_id" style="ellipse;whiteSpace=wrap;html=1;align=center;fontStyle=4;" vertex="1" parent="1">
          <mxGeometry x="-110" y="350" width="70" height="30" as="geometry" />
        </mxCell>
        <mxCell id="MQW95vso0sPVQXTdO-kV-51" value="" style="endArrow=none;html=1;rounded=0;exitX=1;exitY=0;exitDx=0;exitDy=0;entryX=0;entryY=0.5;entryDx=0;entryDy=0;" edge="1" parent="1" source="MQW95vso0sPVQXTdO-kV-10" target="MQW95vso0sPVQXTdO-kV-2">
          <mxGeometry relative="1" as="geometry">
            <mxPoint x="10" y="420" as="sourcePoint" />
            <mxPoint x="80" y="420" as="targetPoint" />
          </mxGeometry>
        </mxCell>
        <mxCell id="MQW95vso0sPVQXTdO-kV-52" value="" style="endArrow=none;html=1;rounded=0;" edge="1" parent="1" target="MQW95vso0sPVQXTdO-kV-2">
          <mxGeometry relative="1" as="geometry">
            <mxPoint x="60" y="490" as="sourcePoint" />
            <mxPoint x="220" y="490" as="targetPoint" />
          </mxGeometry>
        </mxCell>
        <mxCell id="MQW95vso0sPVQXTdO-kV-53" value="" style="endArrow=none;html=1;rounded=0;entryX=0.75;entryY=1;entryDx=0;entryDy=0;exitX=0.5;exitY=0;exitDx=0;exitDy=0;" edge="1" parent="1" source="MQW95vso0sPVQXTdO-kV-17" target="MQW95vso0sPVQXTdO-kV-2">
          <mxGeometry relative="1" as="geometry">
            <mxPoint x="70" y="500" as="sourcePoint" />
            <mxPoint x="102" y="453" as="targetPoint" />
          </mxGeometry>
        </mxCell>
        <mxCell id="MQW95vso0sPVQXTdO-kV-54" value="" style="endArrow=none;html=1;rounded=0;exitX=0;exitY=0.5;exitDx=0;exitDy=0;entryX=1;entryY=0.5;entryDx=0;entryDy=0;" edge="1" parent="1" source="MQW95vso0sPVQXTdO-kV-6" target="MQW95vso0sPVQXTdO-kV-2">
          <mxGeometry relative="1" as="geometry">
            <mxPoint x="70" y="500" as="sourcePoint" />
            <mxPoint x="120" y="450" as="targetPoint" />
          </mxGeometry>
        </mxCell>
        <mxCell id="MQW95vso0sPVQXTdO-kV-55" value="" style="endArrow=none;html=1;rounded=0;exitX=1;exitY=0;exitDx=0;exitDy=0;" edge="1" parent="1" source="MQW95vso0sPVQXTdO-kV-1" target="MQW95vso0sPVQXTdO-kV-4">
          <mxGeometry relative="1" as="geometry">
            <mxPoint x="450" y="230" as="sourcePoint" />
            <mxPoint x="610" y="230" as="targetPoint" />
          </mxGeometry>
        </mxCell>
        <mxCell id="MQW95vso0sPVQXTdO-kV-56" value="" style="endArrow=none;html=1;rounded=0;exitX=1;exitY=0.5;exitDx=0;exitDy=0;entryX=0;entryY=0.5;entryDx=0;entryDy=0;" edge="1" parent="1" source="MQW95vso0sPVQXTdO-kV-1" target="MQW95vso0sPVQXTdO-kV-16">
          <mxGeometry relative="1" as="geometry">
            <mxPoint x="450" y="230" as="sourcePoint" />
            <mxPoint x="610" y="230" as="targetPoint" />
          </mxGeometry>
        </mxCell>
        <mxCell id="MQW95vso0sPVQXTdO-kV-57" value="" style="endArrow=none;html=1;rounded=0;" edge="1" parent="1" source="MQW95vso0sPVQXTdO-kV-1" target="MQW95vso0sPVQXTdO-kV-21">
          <mxGeometry relative="1" as="geometry">
            <mxPoint x="450" y="230" as="sourcePoint" />
            <mxPoint x="610" y="230" as="targetPoint" />
          </mxGeometry>
        </mxCell>
        <mxCell id="MQW95vso0sPVQXTdO-kV-58" value="" style="endArrow=none;html=1;rounded=0;exitX=0;exitY=1;exitDx=0;exitDy=0;entryX=1;entryY=0.5;entryDx=0;entryDy=0;" edge="1" parent="1" source="MQW95vso0sPVQXTdO-kV-9" target="MQW95vso0sPVQXTdO-kV-25">
          <mxGeometry relative="1" as="geometry">
            <mxPoint x="50" y="90" as="sourcePoint" />
            <mxPoint x="210" y="90" as="targetPoint" />
          </mxGeometry>
        </mxCell>
        <mxCell id="MQW95vso0sPVQXTdO-kV-59" value="1" style="resizable=0;html=1;align=right;verticalAlign=bottom;" connectable="0" vertex="1" parent="MQW95vso0sPVQXTdO-kV-58">
          <mxGeometry x="1" relative="1" as="geometry" />
        </mxCell>
        <mxCell id="MQW95vso0sPVQXTdO-kV-60" value="" style="endArrow=none;html=1;rounded=0;exitX=1;exitY=0;exitDx=0;exitDy=0;entryX=0;entryY=0.5;entryDx=0;entryDy=0;" edge="1" parent="1" source="MQW95vso0sPVQXTdO-kV-3" target="MQW95vso0sPVQXTdO-kV-25">
          <mxGeometry relative="1" as="geometry">
            <mxPoint x="-40" y="290" as="sourcePoint" />
            <mxPoint x="120" y="290" as="targetPoint" />
          </mxGeometry>
        </mxCell>
        <mxCell id="MQW95vso0sPVQXTdO-kV-61" value="N" style="resizable=0;html=1;align=right;verticalAlign=bottom;" connectable="0" vertex="1" parent="MQW95vso0sPVQXTdO-kV-60">
          <mxGeometry x="1" relative="1" as="geometry" />
        </mxCell>
        <mxCell id="MQW95vso0sPVQXTdO-kV-62" value="" style="endArrow=none;html=1;rounded=0;exitX=1;exitY=1;exitDx=0;exitDy=0;entryX=0.5;entryY=0;entryDx=0;entryDy=0;" edge="1" parent="1" source="MQW95vso0sPVQXTdO-kV-3" target="MQW95vso0sPVQXTdO-kV-27">
          <mxGeometry relative="1" as="geometry">
            <mxPoint x="89.99999999999977" y="60" as="sourcePoint" />
            <mxPoint x="29.999999999999773" y="125" as="targetPoint" />
          </mxGeometry>
        </mxCell>
        <mxCell id="MQW95vso0sPVQXTdO-kV-63" value="1" style="resizable=0;html=1;align=right;verticalAlign=bottom;" connectable="0" vertex="1" parent="MQW95vso0sPVQXTdO-kV-62">
          <mxGeometry x="1" relative="1" as="geometry">
            <mxPoint x="5.2" y="0.25" as="offset" />
          </mxGeometry>
        </mxCell>
        <mxCell id="MQW95vso0sPVQXTdO-kV-64" value="" style="endArrow=none;html=1;rounded=0;exitX=0;exitY=0;exitDx=0;exitDy=0;entryX=0.5;entryY=1;entryDx=0;entryDy=0;" edge="1" parent="1" source="MQW95vso0sPVQXTdO-kV-2" target="MQW95vso0sPVQXTdO-kV-27">
          <mxGeometry relative="1" as="geometry">
            <mxPoint x="-70" y="190" as="sourcePoint" />
            <mxPoint x="-40" y="125" as="targetPoint" />
          </mxGeometry>
        </mxCell>
        <mxCell id="MQW95vso0sPVQXTdO-kV-65" value="N" style="resizable=0;html=1;align=right;verticalAlign=bottom;" connectable="0" vertex="1" parent="MQW95vso0sPVQXTdO-kV-64">
          <mxGeometry x="1" relative="1" as="geometry">
            <mxPoint x="5" y="20" as="offset" />
          </mxGeometry>
        </mxCell>
        <mxCell id="MQW95vso0sPVQXTdO-kV-66" value="" style="endArrow=none;html=1;rounded=0;exitX=1;exitY=0;exitDx=0;exitDy=0;entryX=0;entryY=0.5;entryDx=0;entryDy=0;" edge="1" parent="1" source="MQW95vso0sPVQXTdO-kV-2" target="MQW95vso0sPVQXTdO-kV-29">
          <mxGeometry relative="1" as="geometry">
            <mxPoint x="-70" y="230" as="sourcePoint" />
            <mxPoint x="-5" y="310" as="targetPoint" />
          </mxGeometry>
        </mxCell>
        <mxCell id="MQW95vso0sPVQXTdO-kV-67" value="1" style="resizable=0;html=1;align=right;verticalAlign=bottom;" connectable="0" vertex="1" parent="MQW95vso0sPVQXTdO-kV-66">
          <mxGeometry x="1" relative="1" as="geometry">
            <mxPoint x="5.2" y="0.25" as="offset" />
          </mxGeometry>
        </mxCell>
        <mxCell id="MQW95vso0sPVQXTdO-kV-68" value="" style="endArrow=none;html=1;rounded=0;exitX=0.5;exitY=1;exitDx=0;exitDy=0;entryX=0.5;entryY=0;entryDx=0;entryDy=0;" edge="1" parent="1" source="MQW95vso0sPVQXTdO-kV-1" target="MQW95vso0sPVQXTdO-kV-29">
          <mxGeometry relative="1" as="geometry">
            <mxPoint x="90" y="410" as="sourcePoint" />
            <mxPoint x="-5" y="340" as="targetPoint" />
          </mxGeometry>
        </mxCell>
        <mxCell id="MQW95vso0sPVQXTdO-kV-69" value="N" style="resizable=0;html=1;align=right;verticalAlign=bottom;" connectable="0" vertex="1" parent="MQW95vso0sPVQXTdO-kV-68">
          <mxGeometry x="1" relative="1" as="geometry">
            <mxPoint x="4.78" y="0.19000000000000128" as="offset" />
          </mxGeometry>
        </mxCell>
        <mxCell id="MQW95vso0sPVQXTdO-kV-70" value="" style="endArrow=none;html=1;rounded=0;exitX=1;exitY=1;exitDx=0;exitDy=0;entryX=0;entryY=0.5;entryDx=0;entryDy=0;" edge="1" parent="1" source="MQW95vso0sPVQXTdO-kV-9" target="MQW95vso0sPVQXTdO-kV-22">
          <mxGeometry relative="1" as="geometry">
            <mxPoint x="190" y="410" as="sourcePoint" />
            <mxPoint x="280" y="325" as="targetPoint" />
          </mxGeometry>
        </mxCell>
        <mxCell id="MQW95vso0sPVQXTdO-kV-71" value="1" style="resizable=0;html=1;align=right;verticalAlign=bottom;" connectable="0" vertex="1" parent="MQW95vso0sPVQXTdO-kV-70">
          <mxGeometry x="1" relative="1" as="geometry">
            <mxPoint x="5.2" y="0.25" as="offset" />
          </mxGeometry>
        </mxCell>
        <mxCell id="MQW95vso0sPVQXTdO-kV-72" value="" style="endArrow=none;html=1;rounded=0;exitX=0;exitY=0;exitDx=0;exitDy=0;entryX=1;entryY=0.5;entryDx=0;entryDy=0;" edge="1" parent="1" source="MQW95vso0sPVQXTdO-kV-1" target="MQW95vso0sPVQXTdO-kV-22">
          <mxGeometry relative="1" as="geometry">
            <mxPoint x="420" y="220" as="sourcePoint" />
            <mxPoint x="315" y="310" as="targetPoint" />
          </mxGeometry>
        </mxCell>
        <mxCell id="MQW95vso0sPVQXTdO-kV-73" value="N" style="resizable=0;html=1;align=right;verticalAlign=bottom;" connectable="0" vertex="1" parent="MQW95vso0sPVQXTdO-kV-72">
          <mxGeometry x="1" relative="1" as="geometry">
            <mxPoint x="4.78" y="0.19000000000000128" as="offset" />
          </mxGeometry>
        </mxCell>
        <mxCell id="MQW95vso0sPVQXTdO-kV-74" value="" style="endArrow=none;html=1;rounded=0;exitX=0.5;exitY=0;exitDx=0;exitDy=0;entryX=0.5;entryY=1;entryDx=0;entryDy=0;" edge="1" parent="1" source="MQW95vso0sPVQXTdO-kV-22" target="MQW95vso0sPVQXTdO-kV-37">
          <mxGeometry relative="1" as="geometry">
            <mxPoint x="150" y="170" as="sourcePoint" />
            <mxPoint x="310" y="170" as="targetPoint" />
          </mxGeometry>
        </mxCell>
        <mxCell id="MQW95vso0sPVQXTdO-kV-75" value="" style="endArrow=none;html=1;rounded=0;exitX=1;exitY=0;exitDx=0;exitDy=0;entryX=0.5;entryY=1;entryDx=0;entryDy=0;" edge="1" parent="1" source="MQW95vso0sPVQXTdO-kV-22" target="MQW95vso0sPVQXTdO-kV-38">
          <mxGeometry relative="1" as="geometry">
            <mxPoint x="295" y="110" as="sourcePoint" />
            <mxPoint x="305" y="80" as="targetPoint" />
          </mxGeometry>
        </mxCell>
        <mxCell id="MQW95vso0sPVQXTdO-kV-77" value="" style="endArrow=none;html=1;rounded=0;exitX=0;exitY=0;exitDx=0;exitDy=0;entryX=0.5;entryY=1;entryDx=0;entryDy=0;" edge="1" parent="1" source="MQW95vso0sPVQXTdO-kV-42" target="MQW95vso0sPVQXTdO-kV-29">
          <mxGeometry relative="1" as="geometry">
            <mxPoint x="305" y="120" as="sourcePoint" />
            <mxPoint x="315" y="90" as="targetPoint" />
          </mxGeometry>
        </mxCell>
        <mxCell id="MQW95vso0sPVQXTdO-kV-78" value="" style="endArrow=none;html=1;rounded=0;entryX=1;entryY=0.5;entryDx=0;entryDy=0;exitX=0;exitY=0.5;exitDx=0;exitDy=0;" edge="1" parent="1" source="MQW95vso0sPVQXTdO-kV-41" target="MQW95vso0sPVQXTdO-kV-29">
          <mxGeometry relative="1" as="geometry">
            <mxPoint x="370" y="300" as="sourcePoint" />
            <mxPoint x="315" y="340" as="targetPoint" />
          </mxGeometry>
        </mxCell>
        <mxCell id="MQW95vso0sPVQXTdO-kV-83" value="" style="endArrow=none;html=1;rounded=0;entryX=0;entryY=0.5;entryDx=0;entryDy=0;exitX=1;exitY=0.5;exitDx=0;exitDy=0;" edge="1" parent="1" source="MQW95vso0sPVQXTdO-kV-43" target="MQW95vso0sPVQXTdO-kV-27">
          <mxGeometry relative="1" as="geometry">
            <mxPoint x="-130" y="260" as="sourcePoint" />
            <mxPoint x="30" y="260" as="targetPoint" />
          </mxGeometry>
        </mxCell>
        <mxCell id="MQW95vso0sPVQXTdO-kV-84" value="" style="endArrow=none;html=1;rounded=0;entryX=0;entryY=1;entryDx=0;entryDy=0;exitX=0.5;exitY=0;exitDx=0;exitDy=0;" edge="1" parent="1" source="MQW95vso0sPVQXTdO-kV-45" target="MQW95vso0sPVQXTdO-kV-27">
          <mxGeometry relative="1" as="geometry">
            <mxPoint x="-70" y="325" as="sourcePoint" />
            <mxPoint x="-40" y="325" as="targetPoint" />
          </mxGeometry>
        </mxCell>
        <mxCell id="MQW95vso0sPVQXTdO-kV-85" value="" style="endArrow=none;html=1;rounded=0;entryX=0;entryY=0;entryDx=0;entryDy=0;exitX=1;exitY=1;exitDx=0;exitDy=0;" edge="1" parent="1" source="MQW95vso0sPVQXTdO-kV-44" target="MQW95vso0sPVQXTdO-kV-25">
          <mxGeometry relative="1" as="geometry">
            <mxPoint x="-60" y="335" as="sourcePoint" />
            <mxPoint x="-30" y="335" as="targetPoint" />
          </mxGeometry>
        </mxCell>
        <mxCell id="MQW95vso0sPVQXTdO-kV-86" value="" style="endArrow=none;html=1;rounded=0;entryX=0.5;entryY=0;entryDx=0;entryDy=0;exitX=0.64;exitY=1.1;exitDx=0;exitDy=0;exitPerimeter=0;" edge="1" parent="1" source="MQW95vso0sPVQXTdO-kV-40" target="MQW95vso0sPVQXTdO-kV-25">
          <mxGeometry relative="1" as="geometry">
            <mxPoint x="-50.25126265847075" y="95.60660171779818" as="sourcePoint" />
            <mxPoint x="-22.5" y="117.5" as="targetPoint" />
          </mxGeometry>
        </mxCell>
      </root>
    </mxGraphModel>
  </diagram>
</mxfile>
